<?xml version="1.0" encoding="UTF-8"?>
<svg width="268px" height="268px" viewBox="-4 -4 264 264" version="1.1" xmlns="http://www.w3.org/2000/svg"
    xmlns:xlink="http://www.w3.org/1999/xlink" preserveAspectRatio="xMidYMid">
    <title>matplotlib</title>
    <g>

        <path
            d="M128,0 C94.0522893,0 61.4949883,13.4856756 37.490332,37.490332 C13.4856756,61.4949883 0,94.0522893 0,128 C0,198.692448 57.307552,256 128,256 C198.692448,256 256,198.692448 256,128 C256,57.307552 198.692448,0 128,0 Z M128,2.76693019 C197.164315,2.76693019 253.23307,58.8356853 253.23307,128 C253.23307,197.164315 197.164315,253.23307 128,253.23307 C58.8356853,253.23307 2.76693019,197.164315 2.76693019,128 C2.76693019,94.7861248 15.9610908,62.9326034 39.4468471,39.4468471 C62.9326034,15.9610908 94.7861248,2.76693019 128,2.76693019 Z"
            fill="#11557C" stroke="#11557C" stroke-width="6"></path>

        <g transform="translate(29.535804, 18.281262)" fill-opacity="0.56">
            <polygon fill="#004CFF"
                points="98.4754622 109.722278 125.294792 101.183725 125.332407 101.258955 125.445251 101.635103 125.482866 101.823177 125.59571 102.199324 125.633325 102.387398 125.746169 102.763546 125.896628 103.365382 126.009472 103.891989 126.122317 104.493825 126.197546 104.945202 126.235161 105.133276 126.272776 105.509424 126.272776 105.697498 126.348005 106.148875 126.348005 106.336949 126.38562 106.713096 126.423235 106.90117 126.46085 107.277318 126.498464 107.540621 126.498464 107.803925 126.536079 108.180072 126.536079 108.368146 126.536079 108.744294 126.536079 109.007597 126.536079 109.270901 126.536079 109.534204 126.536079 109.910352 98.7011509 109.910352">
            </polygon>
            <polygon fill="#CEFF29"
                points="98.4754623 109.722277 128.642506 30.881723 130.147097 31.4459445 131.651688 32.0477808 131.877376 32.1606251 133.081049 32.6872318 133.306737 32.8000762 134.736099 33.477142 136.391149 34.3046669 137.519592 34.9065032 137.970969 35.1698065 138.911338 35.6587985 139.362715 35.9221019 140.491158 36.561553 140.716847 36.712012 142.070978 37.5395369 143.42511 38.3670618 143.650799 38.5175209 144.779242 39.2698162 145.00493 39.4202753 146.321447 40.3230298 147.637964 41.2257842 147.863653 41.3762433 148.916866 42.1285386 149.293014 42.4294568 150.120539 43.0689078 150.496687 43.4450555 150.872834 43.8212032 98.7763804 109.158055">
            </polygon>
            <polygon fill="#FF6800"
                points="98.4754626 109.722278 26.3679523 23.3211562 28.0230021 21.9670245 30.0918143 20.3119747 31.3707165 19.3716055 31.7468641 19.0706874 33.0257662 18.1303182 33.8909059 17.5284819 34.7560456 16.9266456 35.6211852 16.3248093 36.4863249 15.7229731 37.8028418 14.8578334 38.254219 14.5569152 39.6083506 13.7293903 40.0597279 13.466087 41.9404663 12.3376439 43.8212047 11.2844304 46.1533203 10.0055283 47.5826815 9.25323299 48.0716735 9.02754433 49.9524119 8.08717513 51.8331503 7.18442068 54.2781102 6.13120719 55.7827009 5.5293709 56.2716929 5.34129707 58.2276609 4.5890017 60.2212436 3.83670634 62.741433 2.97156667 64.2460238 2.48257469 64.7350157 2.33211562 66.7662132 1.73027933 68.7974106 1.16605781 71.3552148 0.488991982 72.8598056 0.112844304 73.3864123 0 98.2121591 108.63145">
            </polygon>
            <polygon fill="#FFC400"
                points="98.4754628 109.722278 1.57982025 127.288375 1.46697595 126.686539 1.27890211 125.482866 1.09082827 124.241579 1.01559873 123.639743 0.865139661 122.398455 0.789910131 121.796619 0.639451061 120.555332 0.564221521 119.953495 0.376147681 118.072757 0.225688608 116.192018 0.112844304 114.31128 0.075229536 113.709444 0.037614768 112.468157 0.037614768 111.86632 0 110.625033 0 110.023196 0 108.781909 0 107.540622 0 106.938786 0.037614768 105.697498 0.075229536 105.095662 0.150459072 103.854374 0.225688608 102.613087 0.225688608 102.011251 0.338532913 100.769964 0.413762451 100.168127 0.526606751 98.9268401 0.677065821 97.6855528 0.752295361 97.0837163 0.902754431 95.842429 0.977983971 95.2405927 1.16605781 93.9993054 1.27890211 93.3974691 1.65504979 91.5167307 2.03119747 89.7112218 2.40734515 87.9057129 2.55780422 87.3038767 2.85872237 86.1002041 3.00918144 85.4983678 3.31009959 84.2946952 3.46055867 83.6928589 3.83670634 82.4891863 4.21285401 81.2855138 4.40092787 80.6836775 4.77707554 79.5552344 4.96514937 78.9533982 5.34129707 77.8249551 5.71744474 76.6965121 5.94313336 76.1322905 6.31928102 75.0038475 6.54496964 74.439626 6.99634685 73.3111829 7.22203547 72.7469614 7.97433083 71.0166821 8.72662617 69.3240175 9.47892151 67.631353 9.74222491 67.0671314 97.5727082 109.346131">
            </polygon>
            <polygon fill="#29FFCE"
                points="98.4754638 109.722279 51.9836105 141.393914 51.7955366 141.092995 51.3441594 140.41593 51.1560856 140.115012 50.7799379 139.513175 50.5542493 139.137028 50.1781016 138.535191 49.952413 138.159044 49.6514949 137.632437 49.3881915 137.18106 49.0872733 136.654453 48.82397 136.203076 48.5606666 135.751698 48.2597484 135.187477 48.0340598 134.698485 47.7707565 134.134263 97.9488572 109.947968">
            </polygon>
            <polygon fill="#7DFF7A"
                points="98.4754642 109.722279 110.248887 179.083911 108.894755 179.3096 108.631452 179.3096 107.503009 179.460058 107.239705 179.497673 106.111262 179.610518 105.847959 179.610518 104.719516 179.723362 104.456212 179.760977 103.327769 179.836206 103.064466 179.836206 101.936023 179.911436 101.371801 179.911436 100.544277 179.949051 100.280973 179.949051 98.8892267 179.949051 98.0617018 179.949051 97.7983984 179.949051 96.6699554 179.949051 96.406652 179.949051 95.2782089 179.911436 95.0149056 179.911436 93.8864625 179.836206 93.6231592 179.836206 92.4947161 179.760977 91.9304946 179.723362 91.3662731 179.685747 90.5387482 179.685747 89.7112233 179.572903 89.1470018 179.497673 88.3194769 179.384829 87.7552554 179.384829 86.9277304 179.271985 86.4011237 179.196755 85.5735988 179.046296 85.0469921 178.933452 84.2194672 178.782993 83.6928604 178.670149 82.5644174 178.44446 98.0617018 110.549804">
            </polygon>
            <polygon fill="#FF6800"
                points="98.475462 109.722279 187.095855 179.121526 185.779339 180.776576 184.274748 182.657314 182.883002 184.274749 181.303181 186.042643 179.79859 187.547234 178.143541 189.239899 176.63895 190.744489 174.908671 192.399539 173.328851 193.8289 171.523342 195.408721 169.905907 196.762852 168.664619 197.778451 99.2277574 110.587419">
            </polygon>
        </g>
        <g transform="translate(28.898410, 17.526265)" fill="#000000">
            <path
                d="M126.539903,101.7289 L126.258423,101.165939 L97.81164,110.222629 L99.1077764,111.302742 L127.810867,111.302742 L127.810867,108.935069 L127.770089,108.495498 L127.773252,108.295618 L127.729231,107.942173 L127.69486,107.592744 L127.64803,107.34309 L127.61963,107.028522 L127.622793,106.903871 L127.614121,106.799084 L127.547239,106.402672 L127.547564,106.26442 L127.506786,105.82485 L127.459957,105.575196 L127.388432,105.144035 L127.273343,104.529521 L127.157268,103.986826 L127.001926,103.363952 L126.881232,102.959241 L126.85812,102.829317 L126.730772,102.395019 L126.707661,102.265096 L126.580313,101.830798 L126.539903,101.7289 Z M125.506447,102.742171 L125.622591,103.137475 L125.645702,103.267398 L125.77305,103.701696 L125.915659,104.274969 L126.023621,104.780538 L126.133234,105.366286 L126.206219,105.804986 L126.247539,106.013276 L126.275939,106.327843 L126.272776,106.452494 L126.281448,106.557281 L126.34757,106.95821 L126.348005,107.091945 L126.388783,107.531516 L126.435613,107.78117 L126.464013,108.095738 L126.504871,108.385759 L126.498464,108.558921 L126.539243,108.998492 L126.536224,110.027736 L102.625189,110.027736 L125.506447,102.742171 Z">
            </path>
            <path
                d="M131.021213,31.6091355 L128.910864,30.817594 L98.517553,110.24949 L99.6752627,110.777223 L99.9465195,110.267461 L152.363679,44.5282392 L151.208638,43.3731986 L150.320141,42.680093 L149.952437,42.385814 L148.871525,41.612571 L148.628921,41.4504368 L146.002789,39.6495946 L144.416066,38.5917144 L141.68661,36.9231318 L141.482115,36.7862057 L140.314352,36.1225515 L139.869896,35.8632276 L138.902426,35.3592964 L138.47815,35.1109322 L137.328493,34.4972569 L135.658544,33.662036 L134.216991,32.9790356 L134.003494,32.8721259 L132.77025,32.3316684 L132.574133,32.2326749 L131.021213,31.6091355 Z M129.648483,32.4557579 L130.560687,32.7977516 L132.05236,33.3945828 L132.229719,33.485724 L133.462963,34.0261816 L133.65908,34.1251751 L135.100633,34.8081756 L136.743491,35.6297659 L137.857035,36.2239061 L138.287198,36.4753705 L139.254668,36.9793017 L139.678945,37.2276659 L140.814309,37.8710964 L141.000678,37.9973523 L143.730135,39.665935 L145.288762,40.7056158 L147.914894,42.5064579 L148.147484,42.6615837 L149.183782,43.4022039 L149.532231,43.6821745 L150.3682,44.3282646 L150.656757,44.6233799 L101.313996,106.504817 L129.648483,32.4557579 Z">
            </path>
            <path
                d="M99.4691525,109.236888 L74.5050922,0 L73.363647,0.244595435 L71.8380181,0.625625492 L69.2717002,1.30488222 L67.2330126,1.87113531 L65.1913335,2.47597997 L64.6959692,2.62836341 L63.1818174,3.12037978 L60.6516852,3.9888415 L58.6400183,4.7476513 L56.1912838,5.68945853 L54.678782,6.29439824 L52.218376,7.35402651 L50.3139857,8.26754626 L48.4240162,9.21243832 L47.9529703,9.42950161 L46.4938503,10.1964832 L44.1521188,11.4805519 L42.2664274,12.5365103 L40.3691854,13.6745226 L39.9245803,13.9338194 L38.5592439,14.768035 L38.0866732,15.082486 L36.7736762,15.9452959 L33.2991672,18.3620747 L32.006672,19.3121668 L31.6099336,19.6288809 L30.3516222,20.5534541 L28.2622192,22.2243 L26.103582,23.990408 L100.3732,112.982224 L99.4691525,109.236888 Z M73.5423412,1.51243415 L97.87967,108.005706 L27.9069835,24.161263 L29.064018,23.2153368 L31.1273852,21.5646923 L32.3856966,20.6401191 L32.782435,20.323405 L34.0407463,19.3988318 L37.487712,17.0012096 L38.7902785,16.1455035 L39.2451755,15.8422556 L40.5781137,15.0282635 L41.0182862,14.771651 L42.9057968,13.6392013 L44.7700315,12.595557 L47.0971941,11.3193998 L48.5169394,10.572271 L48.9761726,10.3612687 L50.8748571,9.41227415 L52.7463644,8.51404257 L55.1676725,7.47159438 L56.6568171,6.87617287 L59.093866,5.93890709 L61.0836742,5.18804976 L63.5857794,4.32942453 L65.0804274,3.8437546 L65.5598583,3.69631991 L67.5846833,3.09640799 L69.6053992,2.53519484 L72.1557132,1.86016059 L73.5423412,1.51243415 Z">
            </path>
            <path
                d="M98.4552538,109.512764 L10.0748236,66.968011 L9.53871984,68.1168048 L8.02926684,71.5128084 L7.27489452,73.2478123 L6.36486956,75.5221218 L5.97584231,76.6857254 L5.76303327,77.2147864 L4.99785833,79.506833 L4.80608973,80.1201123 L4.43363683,81.2371123 L3.48957286,84.2577367 L2.42637615,88.5061187 L1.66844755,92.141728 L1.29127987,94.0274623 L1.17697497,94.6368375 L0.985176639,95.9001042 L0.531238197,99.6051381 L0.416380095,100.865417 L0.343454949,101.445901 L0.228306254,102.708541 L0.225688608,103.368084 L0.0388560429,106.412735 L-7.10542736e-15,107.674476 L-7.10542736e-15,111.380029 L0.0379072177,112.640623 L0.037614768,113.223153 L0.0755219857,114.483746 L0.226832829,116.98519 L0.378177602,118.878582 L0.567384785,120.771915 L1.09575031,125.075634 L1.28609478,126.333348 L1.47461701,127.539934 L1.70749829,128.783561 L101.350972,110.719313 L98.4552538,109.512764 Z M10.6842845,68.6761657 L96.9791366,110.215348 L2.72748926,127.30255 L2.54604903,126.139464 L2.35842358,124.90109 L1.90960759,121.23363 L1.83408747,120.629433 L1.64777239,118.76433 L1.49844666,116.896186 L1.34877624,114.424681 L1.3121103,113.203847 L1.31240275,112.621317 L1.27449553,111.360723 L1.27449553,107.693782 L1.3121103,106.471801 L1.4993092,103.406643 L1.50047659,102.766247 L1.61070324,101.582667 L1.68362839,101.002183 L1.79877708,99.7395435 L2.0221613,97.9177718 L2.17291097,96.674124 L2.24784991,96.0746482 L2.43365312,94.8497869 L2.54277293,94.26993 L2.91746001,92.3967304 L3.66873538,88.7907087 L4.71631566,84.6024462 L5.64670165,81.6287927 L6.01915456,80.5117926 L6.21092316,79.8985133 L6.95952376,77.6530702 L7.1723328,77.1240092 L7.56136005,75.9604057 L8.45123491,73.7386801 L9.19625977,72.0258242 L10.6842845,68.6761657 Z">
            </path>
            <path
                d="M98.861776,109.891418 L98.3351693,110.117107 L47.564365,134.588398 L48.3184146,136.209579 L48.6356541,136.806645 L49.1740998,137.730614 L49.4721725,138.252292 L49.7383214,138.708598 L50.036394,139.230276 L50.2689348,139.618124 L50.6511343,140.229842 L50.870771,140.596108 L51.4410445,141.508744 L51.9025868,142.201554 L52.431899,143.048974 L99.4717137,111.004052 L98.861776,109.891418 Z M91.8292126,114.666942 L52.8019348,141.253519 L52.5118973,140.817363 L51.9578409,139.930354 L51.7382041,139.564088 L51.3560046,138.95237 L51.1363678,138.586104 L50.8423018,138.071197 L50.576153,137.614892 L50.2780803,137.093213 L49.748628,136.185531 L49.4595489,135.642523 L49.2519159,135.188469 L91.8292126,114.666942 Z">
            </path>
            <path
                d="M111.621671,180.362528 L99.4149072,108.447921 L98.1289933,111.019749 L98.0776841,111.16296 L82.434675,179.696046 L84.2052511,180.050161 L84.7233088,180.161235 L85.5703655,180.315561 L86.0774402,180.424538 L86.9244971,180.578865 L87.4749833,180.657969 L88.306529,180.771375 L88.9568709,180.77722 L89.6982756,180.884219 L91.0900218,181.072293 L92.0036671,181.078138 L94.2181543,181.227185 L94.5238565,181.228597 L95.6099007,181.302415 L95.9156029,181.303826 L97.0228113,181.341441 L101.18167,181.341441 L102.038138,181.303169 L102.573417,181.303826 L103.744259,181.227185 L103.965163,181.228597 L105.136005,181.151956 L105.447051,181.109346 L106.548776,180.999745 L106.748656,181.002908 L107.940522,180.8869 L108.230544,180.846043 L109.353086,180.696399 L109.532149,180.70199 L109.636936,180.693318 L111.621671,180.362528 Z M98.9250813,113.17856 L110.150479,179.314599 L109.477163,179.427166 L109.268846,179.427202 L108.056162,179.583252 L107.786958,179.621682 L106.685233,179.731283 L106.485353,179.72812 L105.293487,179.844128 L105.003465,179.884985 L103.922764,179.955221 L103.70186,179.953809 L102.531018,180.03045 L102.009195,180.029038 L101.152728,180.067311 L97.044046,180.067311 L95.9368376,180.029392 L95.6522996,180.029038 L94.5662554,179.955221 L94.2605532,179.953809 L92.0460659,179.804761 L91.1761422,179.80335 L90.4347377,179.69635 L89.042991,179.508276 L88.3926493,179.502432 L87.1286588,179.320764 L86.3250133,179.17418 L85.8179387,179.065203 L84.9708817,178.910876 L84.4638067,178.8019 L83.9683075,178.702779 L98.9250813,113.17856 Z">
            </path>
            <path
                d="M99.5058423,109.975446 L98.631875,110.89552 L99.3841704,111.76066 L169.205763,199.435749 L170.946923,198.011165 L172.569902,196.652444 L174.385971,195.063585 L175.973701,193.627186 L177.716925,191.960094 L179.23164,190.445601 L180.891725,188.747844 L182.391281,187.248346 L183.995672,185.454461 L185.395294,183.828046 L186.914454,181.929749 L188.631898,179.770681 L99.5058423,109.975446 Z M103.157796,114.453274 L186.834431,179.981662 L185.917907,181.13478 L184.414421,183.014134 L183.037244,184.614011 L181.465299,186.372925 L179.985279,187.851525 L178.325194,189.549282 L176.825638,191.04878 L175.105484,192.693928 L173.538608,194.111246 L171.741009,195.684029 L170.134134,197.029122 L169.398064,197.630655 L103.157796,114.453274 Z">
            </path>
        </g>
    </g>
</svg>